# xmcd CD database file
#
# Track frame offsets:
#	150
#	27362
#	56077
#	73130
#	90145
#	106912
#	127182
#	140960
#	167210
#	186965
#	192575
#	211732
#	234375
#	261812
#	270030
#	284700
#	301065
#
# Disc length: 4081 seconds
#
# Revision: 1
# Processed by: cddbd v1.5.2PL0 Copyright (c) Steve Scherf et al.
# Submitted via: CDex 1.70beta2
#
DISCID=fd0fef11
DTITLE=Duo Sonnenschirm - Live aus dem O-Zonenloch
DYEAR=1993
DGENRE=Brachialromantik
TTITLE0=Fallensteller
TTITLE1=Des Sängers Tricks
TTITLE2=Der Haarspalter
TTITLE3=Wahlmärchen
TTITLE4=Wo ist mein Surfbrett?
TTITLE5=Der Prophet
TTITLE6=Loreley
TTITLE7=Idiotisches Lied
TTITLE8=Die vergessene Melodie
TTITLE9=Lebensmittelvergiftung
TTITLE10=Steine haben keine Angst
TTITLE11=Hase im Pfeffer
TTITLE12=Zugroulette
TTITLE13=Mär vom Meer
TTITLE14=Das Universum
TTITLE15=Das alte Weib von Reichenbach
TTITLE16=Tränen weinen nicht
EXTD=YEAR: 1993
EXTT0=
EXTT1=
EXTT2=
EXTT3=
EXTT4=
EXTT5=
EXTT6=
EXTT7=
EXTT8=
EXTT9=
EXTT10=
EXTT11=
EXTT12=
EXTT13=
EXTT14=
EXTT15=
EXTT16=
PLAYORDER=
